<?xml version="1.0" encoding="iso-8859-1"?>
<!-- Generator: Adobe Illustrator 18.0.0, SVG Export Plug-In . SVG Version: 6.00 Build 0)  -->
<!DOCTYPE svg PUBLIC "-//W3C//DTD SVG 1.1//EN" "http://www.w3.org/Graphics/SVG/1.1/DTD/svg11.dtd">
<svg version="1.1" id="Capa_1" xmlns="http://www.w3.org/2000/svg" xmlns:xlink="http://www.w3.org/1999/xlink" x="0px" y="0px"
	 viewBox="0 0 116.422 116.422" style="enable-background:new 0 0 116.422 116.422;" xml:space="preserve">
<g>
	<path style="fill-rule:evenodd;clip-rule:evenodd;fill:#4D1B02;" d="M51.837,3.363c0.828,0,1.619,0.168,2.344,0.474
		C55.202,1.569,57.384,0,59.912,0c3.246,0,5.923,2.586,6.299,5.92c1.058-0.838,2.37-1.335,3.793-1.335
		c3.446,0,6.25,2.913,6.342,6.543c0.865-0.47,1.847-0.734,2.886-0.734c3.504,0,6.343,3.011,6.343,6.726
		c0,1.025-0.217,1.998-0.604,2.868c0.383-0.077,0.777-0.117,1.182-0.117c3.503,0,6.343,3.011,6.343,6.725
		c0,1.467-0.443,2.825-1.196,3.931c0.927,1.169,1.484,2.677,1.484,4.324c0,2.004-0.826,3.803-2.139,5.035
		c1.144,1.216,1.851,2.893,1.851,4.747c0,2.805-1.62,5.208-3.922,6.217c1.004,1.19,1.615,2.761,1.615,4.482
		c0,3.056-1.923,5.635-4.556,6.454c0.15,0.573,0.23,1.177,0.23,1.8c0,3.714-2.939,7.809-6.344,6.725
		c0.254,2.886-4.262,8.114-8.698,5.089c-2.373,7.745-18.7,6.44-21.864,0.016c-3.372,3.702-9.191,0.72-9.38-3.578
		c-3.713,0.09-6.481-3.126-6.481-6.724c0-0.554,0.063-1.092,0.183-1.606c-3.043-0.495-5.373-3.283-5.373-6.647
		c0-0.727,0.109-1.426,0.31-2.082c-2.675-0.791-4.636-3.392-4.636-6.478c0-0.83,0.142-1.624,0.401-2.357
		c-1.474-1.232-2.419-3.141-2.419-5.285c0-2.009,0.83-3.813,2.148-5.045c-0.979-1.184-1.572-2.734-1.572-4.432
		c0-2.643,1.438-4.929,3.529-6.028c-0.229-0.695-0.354-1.441-0.354-2.22c0-3.714,2.84-6.725,6.344-6.725
		c0.202,0,0.402,0.011,0.602,0.03c0.717-2.312,2.585-4.07,4.885-4.513c-0.008-0.138-0.012-0.276-0.012-0.415
		c0-3.714,2.84-6.725,6.344-6.725c1.308,0,2.525,0.42,3.534,1.14C48.174,4.28,49.905,3.363,51.837,3.363z"/>
	<path style="fill-rule:evenodd;clip-rule:evenodd;fill:#E6A875;" d="M67.88,75.976c-0.198,0.313-19.746,0.624-19.961,0.932
		c-6.14,8.759-19.404,12.596-29.951,14.954c-10.498,2.347-10.903,15.68-10.92,24.56h102.325c-0.016-8.88-0.21-22.165-10.919-24.56
		C87.746,89.467,73.705,85.133,67.88,75.976z"/>
	<path style="fill-rule:evenodd;clip-rule:evenodd;fill:#E6A875;" d="M68.463,57.272v25.117c-5.64,7.412-14.865,7.155-20.504,0
		V57.272C47.959,43.71,68.463,43.71,68.463,57.272z"/>
	<path style="fill-rule:evenodd;clip-rule:evenodd;fill:#B88053;" d="M68.463,57.272v16.816c-3.88,3.035-7.619,4.735-10.252,4.735
		c-2.633,0-6.372-1.701-10.252-4.735V57.272C47.959,43.71,68.463,43.71,68.463,57.272z"/>
	<path style="fill-rule:evenodd;clip-rule:evenodd;fill:#E6A875;" d="M58.211,74.646c-6.675,0-20.775-10.494-25.135-25.524
		c-4.401-15.176,3.888-36.944,25.135-36.944s29.536,21.767,25.134,36.944C78.986,64.152,64.886,74.646,58.211,74.646z"/>
	<path style="fill-rule:evenodd;clip-rule:evenodd;fill:#FF698F;" d="M47.892,59.254c4.502-3.293,9.199-1.344,10.77-1.344
		c1.571,0,6.01-1.949,10.512,1.344C66.933,68.308,51.283,68.536,47.892,59.254z"/>
	<path style="fill-rule:evenodd;clip-rule:evenodd;fill:#A31F40;" d="M48.125,59.207c4.178-1.474,7.872,1.412,10.501,1.412
		c2.629,0,6.332-3.875,10.511-1.264C64.24,64.345,53.054,64.075,48.125,59.207z"/>
	<path style="fill-rule:evenodd;clip-rule:evenodd;fill:#FFFFFF;" d="M48.125,59.206c4.501-1.855,7.813-0.51,10.442-0.51
		s6.337-1.346,10.839,0.51C64.509,62.002,53.054,61.909,48.125,59.206z"/>
	<path style="fill-rule:evenodd;clip-rule:evenodd;fill:#FF698F;" d="M47.935,59.224c4.482-3.25,8.329-0.996,10.953-0.996
		c2.624,0,5.783-2.267,10.285,1.026c-0.016,0.046-0.034,0.091-0.051,0.136C63.383,59.288,53.991,59.229,47.935,59.224z"/>
	
		<ellipse transform="matrix(-0.3947 -0.9188 0.9188 -0.3947 -1.3272 99.0105)" style="fill-rule:evenodd;clip-rule:evenodd;fill:#E6A875;" cx="31.952" cy="49.942" rx="7.317" ry="4.231"/>
	
		<ellipse transform="matrix(0.3947 -0.9188 0.9188 0.3947 5.8212 108.7209)" style="fill-rule:evenodd;clip-rule:evenodd;fill:#E6A875;" cx="85.424" cy="49.942" rx="7.317" ry="4.231"/>
	<path style="fill-rule:evenodd;clip-rule:evenodd;fill:#4D1B02;" d="M81.919,48.963C101.56,23.355,63.748,8.567,53.808,8.567
		c-8.553,0-34.977,23.902-19.147,42.139c-0.146-3.18,0.123-8.227,4.876-9.986c3.58,0.018,8.054-0.231,8.131-3.723
		c0.754,0.344,1.586,0.535,2.459,0.535c2.975,0,5.463-2.213,6.078-5.171c0.107,0.005,0.215,0.008,0.323,0.008
		c2.249,0,4.219-1.264,5.313-3.159c1.01-0.086,1.953-0.427,2.77-0.963c0.911,1.728,2.535,2.978,4.45,3.302
		c0.612,2.964,3.646,7.901,9.163,5.364C80.955,40.995,82.159,44.889,81.919,48.963z"/>
	<path style="fill-rule:evenodd;clip-rule:evenodd;fill:#FFC65D;" d="M17.345,92.019c5.398,5.613,9.797,13.862,9.918,24.403h63.886
		c0.258-8.305,2.285-17.816,7.115-24.512l0.057-0.078c-0.46-0.103-0.925-0.209-1.396-0.32c-7.69,11.725-20.249,20.309-39.864,20.309
		c-18.904,0-30.362-8.781-38.067-20.191c-0.344,0.079-0.687,0.157-1.025,0.233C17.755,91.909,17.549,91.963,17.345,92.019z"/>
	<g>
		<path style="fill-rule:evenodd;clip-rule:evenodd;fill:#FFFFFF;" d="M42.718,84.135c1.078,0,1.957-0.879,1.957-1.957
			c0-1.078-0.879-1.957-1.957-1.957c-1.078,0-1.957,0.879-1.957,1.957C40.761,83.256,41.64,84.135,42.718,84.135z"/>
		<circle style="fill-rule:evenodd;clip-rule:evenodd;fill:#FFFFFF;" cx="45.195" cy="85.297" r="1.957"/>
		<circle style="fill-rule:evenodd;clip-rule:evenodd;fill:#FFFFFF;" cx="48.46" cy="87.923" r="1.957"/>
		<path style="fill-rule:evenodd;clip-rule:evenodd;fill:#FFFFFF;" d="M52.056,91.631c1.078,0,1.957-0.879,1.957-1.957
			c0-1.078-0.879-1.957-1.957-1.957s-1.957,0.879-1.957,1.957C50.099,90.752,50.978,91.631,52.056,91.631z"/>
		<path style="fill-rule:evenodd;clip-rule:evenodd;fill:#FFFFFF;" d="M56.036,92.563c1.077,0,1.957-0.879,1.957-1.957
			s-0.88-1.957-1.957-1.957c-1.078,0-1.957,0.879-1.957,1.957S54.958,92.563,56.036,92.563z"/>
		<path style="fill-rule:evenodd;clip-rule:evenodd;fill:#FFFFFF;" d="M60.21,92.596c1.078,0,1.958-0.879,1.958-1.957
			c0-1.078-0.88-1.957-1.958-1.957c-1.077,0-1.957,0.879-1.957,1.957C58.253,91.717,59.133,92.596,60.21,92.596z"/>
		<path style="fill-rule:evenodd;clip-rule:evenodd;fill:#FFFFFF;" d="M64.31,91.651c1.078,0,1.957-0.879,1.957-1.957
			c0-1.078-0.879-1.957-1.957-1.957c-1.078,0-1.957,0.879-1.957,1.957C62.353,90.772,63.232,91.651,64.31,91.651z"/>
		<path style="fill-rule:evenodd;clip-rule:evenodd;fill:#FFFFFF;" d="M68.098,89.793c1.078,0,1.957-0.879,1.957-1.957
			s-0.879-1.957-1.957-1.957c-1.077,0-1.957,0.879-1.957,1.957S67.021,89.793,68.098,89.793z"/>
		<path style="fill-rule:evenodd;clip-rule:evenodd;fill:#FFFFFF;" d="M71.243,87.239c1.078,0,1.957-0.879,1.957-1.957
			c0-1.078-0.879-1.957-1.957-1.957c-1.078,0-1.957,0.879-1.957,1.957C69.286,86.36,70.165,87.239,71.243,87.239z"/>
		<path style="fill-rule:evenodd;clip-rule:evenodd;fill:#FFFFFF;" d="M73.755,84.052c1.078,0,1.957-0.879,1.957-1.957
			c0-1.078-0.879-1.957-1.957-1.957c-1.078,0-1.957,0.879-1.957,1.957C71.798,83.173,72.677,84.052,73.755,84.052z"/>
		<path style="fill-rule:evenodd;clip-rule:evenodd;fill:#FFFFFF;" d="M33.71,57.345c1.078,0,1.958-0.879,1.958-1.957
			c0-1.078-0.88-1.957-1.958-1.957c-1.077,0-1.957,0.879-1.957,1.957C31.753,56.466,32.633,57.345,33.71,57.345z"/>
		<path style="fill-rule:evenodd;clip-rule:evenodd;fill:#FFFFFF;" d="M83.21,57.345c1.078,0,1.958-0.879,1.958-1.957
			c0-1.078-0.88-1.957-1.958-1.957c-1.077,0-1.957,0.879-1.957,1.957C81.253,56.466,82.133,57.345,83.21,57.345z"/>
	</g>
</g>
<g>
</g>
<g>
</g>
<g>
</g>
<g>
</g>
<g>
</g>
<g>
</g>
<g>
</g>
<g>
</g>
<g>
</g>
<g>
</g>
<g>
</g>
<g>
</g>
<g>
</g>
<g>
</g>
<g>
</g>
</svg>
