<?xml version="1.0" encoding="utf-8"?>
<!-- Generator: Adobe Illustrator 16.0.0, SVG Export Plug-In . SVG Version: 6.00 Build 0)  -->
<!DOCTYPE svg PUBLIC "-//W3C//DTD SVG 1.1//EN" "http://www.w3.org/Graphics/SVG/1.1/DTD/svg11.dtd">
<svg version="1.1" id="Layer_1" xmlns="http://www.w3.org/2000/svg" xmlns:xlink="http://www.w3.org/1999/xlink" x="0px" y="0px"
	 width="1200px" height="420px" viewBox="0 0 1200 420" enable-background="new 0 0 1200 420" xml:space="preserve">
<g>
	<path fill="#2E3192" d="M296.332,0.211c-77.242,0-139.859,62.618-139.859,139.859c0,77.242,62.617,139.859,139.859,139.859
		c77.243,0,139.859-62.617,139.859-139.859C436.191,62.829,373.575,0.211,296.332,0.211z M296.332,261.502
		c-67.064,0-121.432-54.367-121.432-121.432S229.268,18.639,296.332,18.639c67.065,0,121.432,54.367,121.432,121.432
		S363.397,261.502,296.332,261.502z"/>
	<path fill="#231F20" d="M600,0.211c-77.243,0-139.859,62.618-139.859,139.859c0,77.242,62.617,139.859,139.859,139.859
		c77.243,0,139.859-62.617,139.859-139.859C739.859,62.829,677.243,0.211,600,0.211z M600,261.502
		c-67.064,0-121.432-54.367-121.432-121.432S532.936,18.639,600,18.639S721.432,73.006,721.432,140.07S667.064,261.502,600,261.502z
		"/>
	<path fill="#ED1C24" d="M903.668,0.211c-77.243,0-139.859,62.618-139.859,139.859c0,77.242,62.616,139.859,139.859,139.859
		s139.859-62.617,139.859-139.859C1043.527,62.829,980.911,0.211,903.668,0.211z M903.668,261.502
		c-67.064,0-121.433-54.367-121.433-121.432S836.604,18.639,903.668,18.639S1025.1,73.006,1025.1,140.07
		S970.732,261.502,903.668,261.502z"/>
	<path fill="#39B54A" d="M751.834,140.07c-77.243,0-139.859,62.618-139.859,139.859c0,77.242,62.616,139.859,139.859,139.859
		s139.859-62.617,139.859-139.859C891.693,202.688,829.077,140.07,751.834,140.07z M751.834,401.361
		c-67.064,0-121.432-54.367-121.432-121.432s54.367-121.432,121.432-121.432s121.432,54.367,121.432,121.432
		S818.898,401.361,751.834,401.361z"/>
	<path fill="#FBB040" d="M448.166,140.07c-77.243,0-139.859,62.618-139.859,139.859c0,77.242,62.616,139.859,139.859,139.859
		s139.859-62.617,139.859-139.859C588.025,202.688,525.409,140.07,448.166,140.07z M448.166,401.361
		c-67.064,0-121.432-54.367-121.432-121.432s54.368-121.432,121.432-121.432s121.432,54.367,121.432,121.432
		S515.23,401.361,448.166,401.361z"/>
</g>
</svg>
